<svg id="02339110-67a7-4963-b260-06ad65918b5a" data-name="Layer 1" xmlns="http://www.w3.org/2000/svg" viewBox="0 0 809 173"><title>vector_brand</title><path d="M647.18,90.47c0.34-5.17,1.19-10.36.91-15.5-0.48-8.63,5.87-5,9.63-5.72,5-1,6.45,2.51,6.57,6.43,0.1,3.11-.87,6.25-1.05,9.39-0.14,2.34-.91,5.47,2.54,6.07,3.13,0.54,3.34-2.52,4-4.52,1.1-3.43,1.86-7,2.8-10.44A11.66,11.66,0,0,1,679.08,68c6.22-2.84,10.45-1.06,11.28,5.68A47.74,47.74,0,0,1,684,104.93c-4.74,7.71-16.82,9.3-27.84,4.71C651,107.49,645.44,102.63,647.18,90.47Zm5.16-5c0,3.48,0,5.06,0,6.64,0,9.56,4,13.55,15.27,15a13.72,13.72,0,0,0,15.22-10.52,133.47,133.47,0,0,0,3.35-17.21c0.33-2.66.82-6.72-2.86-7.39s-5.41,2.49-6.23,5.81c-0.91,3.71-1.57,7.5-2.77,11.11-1.5,4.49-4.11,8.67-9.55,7.6-5-1-7.29-4.88-6.64-10.17,0.33-2.67.5-5.36,0.86-8,0.24-1.79.05-3.3-2.12-3.32-1.63,0-3.75-.61-3.88,2.3C652.84,80.66,652.46,84,652.34,85.47Z"/><path d="M721.05,96.56c0-1.37,0-1.59,0-1.82,0.21-3.39,2.13-8.39-2.63-8.91-3.79-.41-6.12,4-6.89,8.06a15.43,15.43,0,0,0-.35,5.37c1.32,7.68-4.82,12.11-13.81,9.67-2.31-.63-3.24-2.77-3.11-5.39,0.58-12.12,4.47-22.94,12.8-31.84,6-6.4,13.73-7.15,21.9-5.75a5.07,5.07,0,0,1,1.89.71c9.21,6.09,9.72,16.12,11.24,25.54,1.12,7-3.54,11.44-8.47,15.12s-12.33-.07-12.87-6.56A20.31,20.31,0,0,1,721.05,96.56Zm5.55-5.18c-0.2,1-.49,2.8-0.91,4.53-0.76,3.16-.26,6.27,2.9,7.31,2.9,1,4.94-1.58,6.46-3.9a9.72,9.72,0,0,0,1.55-7.12,107,107,0,0,0-3-13.08c-2.69-8.52-5.07-9.7-14-8.55a15.91,15.91,0,0,0-9.4,4.78c-6.8,6.63-9.33,15.21-11,24.14-0.4,2.13-.9,4.77,2.67,4.94,3.06,0.15,3.57-1.66,3.74-4.3,0.37-5.56.67-11.3,5.14-15.46,2.77-2.58,5.57-5.48,10.05-3.84S726.34,86.35,726.61,91.37Z"/><path d="M263,95.85c0,2.26.06,4.52,0,6.78-0.29,8.79-3.54,10.72-10.85,6.22-6.1-3.76-10.12,1.46-14.61,3.45-5.15,2.28-9.68,3.57-14.5-.11-5.15-3.95-7.62-9.43-6.09-15.52,1.66-6.61,6.52-11.25,13-13.7,3.58-1.36,7.36-2.16,11-3.27,1.72-.52,4-1,3.82-3.19-0.21-2.82-2.78-1.51-4.34-1.62-3.37-.24-6.81.1-10.13-0.38-5.37-.78-6.87-4.55-3.33-8.68,3.33-3.89,7.35-6,13.1-5.26,8.15,1,17,.5,19.7,10.54,1.71,6.26,2.13,12.88,3,19.35a40.75,40.75,0,0,1,0,5.42H263ZM238.65,70.78c4.66-.17,10-1.84,10.86,4.28,0.87,6-4.27,7.75-8.83,9.27a56,56,0,0,1-7.23,1.73c-4.79.91-8.06,3.91-10.59,7.77-3,4.64-1.69,8.92,1.49,13,3.34,4.24,6.76,3.35,11.26,1.38,6.09-2.67,11.63-9.41,19.69-3.56,2.72,2,2.94-1.35,3.13-3.31,0.73-7.68-.72-15.17-1.91-22.69-1.75-11-7.33-15.54-18.41-14.52-3.09.28-7.44,1.62-7.49,4.55-0.05,3.61,4.37.83,6.55,1.94A3.45,3.45,0,0,0,238.65,70.78Z"/><path d="M463.32,87.3c-0.88,8.21-.51,15.73-2.95,22.82-1.24,3.61-2.77,7.89-7.57,7.28-5-.65-6-5.2-5.95-9.34,0.12-4.7,1.28-9.37,1.71-14.08,0.34-3.76,0-7.59-4.73-8.42-4.26-.75-5.83,2.35-7.09,5.74a57.58,57.58,0,0,0-3.35,14.43c-0.44,4.42-2.24,8.29-7.54,7.46s-7.26-4.51-6.24-10a199.55,199.55,0,0,0,3.48-28.15c0.12-2.84-.29-6.29,4-7.61s7,0.53,9.09,3.72c1.86,2.88,4.18,3,7,2.14C455.65,69.61,463.35,75.3,463.32,87.3ZM459,90l-0.49,0c0-.9,0-1.8,0-2.69-0.45-10.42-5.18-13.74-14.71-9.93-4.92,2-8.72,1.89-11.05-3.53a3.63,3.63,0,0,0-3.62-2.52,2,2,0,0,0-1.93,2.27c0,10.14-1.81,20.09-3.2,30.08-0.21,1.47-.26,3.39,1.76,3.89,2.51,0.61,3-1.4,3.47-3.14,1.21-4.77,2.19-9.61,3.51-14.35,1.83-6.56,6-9.5,11.66-8.47s8.74,5.44,8.07,12.14c-0.42,4.25-1.37,8.45-2,12.67-0.36,2.28-.59,5.33,1.83,5.85,2.86,0.61,4.15-2.24,4.52-4.83C457.63,101.56,458.28,95.75,459,90Z"/><path d="M576.82,91.38c-5.13,3.09-5.29,7.47-6.54,11.06-2.35,6.72-6,10.39-13.9,10.15-5-.16-5.94-1-4.49-5.62,3.25-10.31,5.17-21.15,12.52-29.72,8.94-10.42,19.77-10,26.37,1.93,4.41,8,7.79,16.79,5.89,26.52-1.07,5.5-3.87,9.5-9.64,9.56s-8.86-3.39-10.14-9.06C575.86,101.7,576.45,97.29,576.82,91.38Zm15,9a48.32,48.32,0,0,0-6.06-20c-3.88-6.8-11.78-7.5-17-1.65-6.08,6.87-9.18,15.33-11.52,24.07-0.39,1.45-1.37,3.13.82,4,1.88,0.74,3.66.39,4.72-1.41s1.69-3.64,2.58-5.44c2.17-4.39,3.46-9.41,7.74-12.41,4.9-3.45,8.19-1.92,8.52,4,0.17,3.09-.83,6.26-0.53,9.31,0.38,3.95.75,9.36,5.87,9.21C591.89,109.92,591.28,104.64,591.87,100.35Z"/><path d="M415.17,84.29c-2.06,8.72-4.12,18.43-6.72,28-1,3.79-4.44,4.26-7.78,2.77-4.73-2.12-9.06-3.27-14.57-1.36-6.11,2.12-14.34-3.55-16-9.55-1.88-6.65,2-13.22,9.43-15.68A63.79,63.79,0,0,1,390,85.84c4.19-.63,6.26-3.65,6.15-6.91-0.12-3.8-4.1-2.23-6.54-2.61a8.4,8.4,0,0,0-2,0c-4.62.43-7.82-2.23-8.55-6.1s3-6.21,6.16-7.54C398.51,57.1,415.3,62.2,415.17,84.29ZM393,64c-3.84-.53-8.08,1.93-8.48,6.21-0.3,3.31,4.52,1.39,6.79,1.46,4.34,0.14,8.72.18,10.07,4.85s-1.48,8.57-5.12,11.58c-2.17,1.79-4.79,2.4-7.51,2.83a42.67,42.67,0,0,0-7.24,1.55c-4.67,1.61-8.52,4.74-6.79,10s6.3,7.78,12,6.09c4.61-1.38,8.73-1.45,12.85,1.35,3,2.06,5.33,1.09,5.67-2.62,0.67-7.26,3.29-14,4.91-21C412.86,74.4,405.14,63.74,393,64Z"/><path d="M82.7,114c-11.05-.56-13.83,2.48-12.32,13.42,0.49,3.57,1.25,7.14-.33,10.67-1.21,2.72-1.19,7.06-5.8,5.79-3.48-1-6.69-2-7.23-7.32-2.32-22.44,2.49-43,15.42-61.32,8.31-11.76,23.08-10.36,29.7,2.39,3.11,6,5.44,12.89,3.63,19.56C102.16,110.47,96.22,114.43,82.7,114ZM60,124.65c0.26,3.6.39,7.21,0.82,10.78a3.54,3.54,0,0,0,3.82,3.11c2-.16,1.88-2.41,1.84-3.83a71.58,71.58,0,0,0-1-8c-1.61-11.42,2.3-18.12,17.26-16.89,5,0.41,10.06.2,13.94-3.68,8-8,5.94-27.14-3.69-33.09-3.47-2.14-7.23-2.8-11.34-.32a25.81,25.81,0,0,0-8.24,7.84C64.48,93.85,61.08,108.88,60,124.65Z"/><path d="M311.81,76.33c1.73,3.47,3.78,4.47,5.57,5.7,7.23,4.94,8.28,10.93,3.48,18.43-5.08,7.92-12.83,11.21-21.56,12.41-4.73.65-9.87-.78-10.53-6.19s4.92-6.26,8.83-7.58c2.55-.86,6.34,1.08,7.42-3s-2.4-5.53-4.78-7.42c-3.69-2.94-8.64-5.37-6.88-11.15,2.11-7,12.5-14.69,18-14.55,5,0.12,9,2.56,13,5,2.61,1.54,3.33,3.59,2.41,6.24s-3.06,3.83-5.87,3.48C318.26,77.4,315.63,76.93,311.81,76.33Zm9.93-3.45c-4.47-2.78-8.26-7.74-14.21-4.93-9.92,4.67-10.75,11.81-2.34,18.53,0.88,0.7,1.8,1.37,2.62,2.15,2.66,2.51,2.75,5.69,1.58,8.73s-2.59,5.9-6.4,6.24c-1.57.14-3.17,0.11-4.72,0.37s-3.71.53-3.62,2.34c0.12,2.33,2.64,2.43,4.23,2.14,8-1.47,15.19-4.45,19.21-12.17,2-3.86,1.82-7.31-2.49-9.79a36,36,0,0,1-6.52-4.76c-1.77-1.65-3.78-3.65-2.59-6.44,1.12-2.62,3.91-3.09,6.28-3.2C315.75,71.93,318.75,72.57,321.74,72.88Z"/><path d="M149.57,81.6c0,4.21-1.17,10.16,3.7,11,3.32,0.55,3.7-5.81,5.07-9.2,1.43-3.55,2.23-7.36,3.63-10.93a6.74,6.74,0,0,1,7-4.3c2.91,0.13,4.26,2.53,5.1,4.85,3.82,10.61-4.07,30.32-14,35.26-9.6,4.79-19.66,1.42-23.33-8.81A52.74,52.74,0,0,1,133.23,79c0.27-6.22,4.17-8.08,7.91-10.2,2.88-1.63,6.16-.73,7.35,3.41A25.5,25.5,0,0,1,149.57,81.6Zm-4.68.29c0.24-1.51.69-2.48,0.47-3.28-0.5-1.85-.14-4.44-2.29-5.22-2.41-.87-2.65,1.95-3.7,3.17-3.22,3.74-2,16,2.58,22,2.92,3.86,6,8.42,12,7.1,6.27-1.37,11.63-4.5,13.59-10.9a77.41,77.41,0,0,0,2.53-15.33c0.22-2.28.71-6.05-1.89-6.57-2.94-.58-3.14,3.18-3.81,5.39-1.76,5.82-3.21,11.74-6.28,17.07-2.44,4.23-5.33,4.07-8.78,1C144.68,92.16,145.95,86.42,144.88,81.89Z"/><path d="M513.83,61.19c-3.47,17.64-7.48,36.76-19.4,53-3.63,5-16.41,3.3-21.29-2.49-7-8.33-7.53-15.76-.88-24.55,4.85-6.41,9.62-13.63,19.7-11.24,2.58,0.61,3.8-1.17,4.45-3.18a80.81,80.81,0,0,0,2.17-8.48c0.37-1.76.33-3.6,0.58-5.38,0.76-5.46,6-11.63,9.58-10.64C514.56,49.88,513.57,55,513.83,61.19Zm-3-.73c-0.26-3.37.36-7.43-3.26-7.59-2.89-.13-4.5,3.44-4.86,6.53-0.26,2.24,0,4.53-.25,6.77-0.39,4.09-1.17,8.15-4,11.33-1.24,1.42-2.52,3.15-5,3-10.89-.7-18.32,4.59-20.77,14.68-1.64,6.75,1.74,12.61,9.21,15.93,6.59,2.93,9.12,2.11,13.74-5.18C504.62,91.88,506.7,75.58,510.85,60.46Z"/><path d="M640.27,79.71a48.5,48.5,0,0,1-3.12,17.23c-4.22,10.82-12,16.35-20,14.56-7.8-1.74-16-13.16-16.05-22.27,0-11.56,13.67-25.52,25.22-25.7C636.47,63.35,640.74,68.31,640.27,79.71Zm-4.27,0c-0.41-5.29-.79-10.25-6.75-11.51-5.08-1.08-19.21,7.2-21.27,12.1-2.32,5.51-2.46,10.95.4,16.26,2.77,5.14,6.57,9.43,12.73,9.78,5.89,0.34,8.13-4.74,10.64-8.89C635.13,91.9,635.25,85.48,636,79.73Z"/><path d="M181.35,94.51c-0.26-7.89,2.19-15.58,1.54-23.54-0.25-3.07,9.17-7.35,10.37-4.94,3.06,6.17,6.81,2.91,10.75,2,1.78-.43,3.37-1.13,5.05-1.71,3.16-1.08,7.1-2.56,9.17,1s-0.21,6.92-3.06,9.49a16.24,16.24,0,0,1-7.94,3.58c-6.66,1.35-10.36,4.89-9.91,12.2,0.25,4.06-.8,8-2.14,11.94-0.94,2.73-2,5.09-5.18,5.55-3.54.52-5.33-2-7.05-4.37C180.5,102.28,181.53,98.28,181.35,94.51Zm33.18-25.75c-5,1.72-8.85,3.53-12.92,4.3-2.68.51-5.76,3-8.32,0.57-5.4-5.16-5.8-.26-6.27,3.13-0.77,5.55-1.07,11.18-1.32,16.79-0.18,4.1-1.5,10.59,3.3,10.84,4.33,0.23,4.1-6.3,4.14-10.45,0.12-11.41,2.52-14.62,13.93-18.21C210.11,74.79,213.14,73.87,214.53,68.77Z"/><path d="M269.67,77.27c0.38-8.57.94-17.13,1.06-25.7,0-3,.24-5.59,3.57-6.28s6.89-.82,9.14,2.57a13,13,0,0,1,2.39,7.67c-0.72,16.89-.7,33.86-5.37,50.35-1,3.45-1.92,7.26-6,6.76s-5.29-4.48-5.32-8.33c-0.07-9,0-18,0-27h0.56ZM274.57,108c1.37-2.24,1.88-2.93,2.25-3.7,4.49-9.45,3.42-19.82,4.61-29.77,0.82-6.87.28-13.91,0.15-20.87-0.05-2.69-1.31-5-4.47-4.8s-2.31,2.76-2.39,4.65c-0.41,8.67-1.25,17.35-1,26C273.93,88.42,272.47,97.37,274.57,108Z"/><path d="M125.39,70c0,11.22.52,22.49-1.18,33.67-0.53,3.46-1.67,6.78-5,7.25-3,.44-4.64-3-6.26-5.41a10.13,10.13,0,0,1-1.35-7.2c2-14.3-1.77-28.31-1.87-42.49,0-4.36,4.43-10,8.7-10.05,5.34-.06,6.88,3.46,6.92,8C125.43,59.21,125.39,64.61,125.39,70Zm-6.16,36.38c2.08-7.44,3.33-14,3.17-20.8-0.21-9.33-.74-18.65-0.77-28,0-3,.69-6.86-2.48-7.54-4.32-.93-4.08,3.87-5.18,6.54-0.45,1.08.1,2.58,0.22,3.89,1.11,11.64,3.1,23.22,1.65,35A13,13,0,0,0,119.23,106.38Z"/><path d="M233.91,101.78c-1.92.17-3.59-.2-4.57-2.07-1.1-2.09-.35-3.83.93-5.57,4.34-5.9,11.22-5.87,17.39-7.28,2.12-.49,2,1.68,1.84,3.34C249,96.82,242.83,101.47,233.91,101.78Zm10.59-9.11c-4.4-1.08-7.1,1-9.52,3.86C238.19,95.7,242,96.26,244.5,92.67Z"/><path d="M392.7,92.87c1.9,2.52,8.06-2.08,6.93,4.59-0.94,5.52-4.76,7.46-9.86,6.8-3.2-.41-8-0.82-7.14-5.23C383.52,94.38,388.55,93.72,392.7,92.87Zm0.11,3.2c-2,1.4-3.11,1.82-3.53,2.63s0.43,1.51,1.41,1.51c1.31,0,2.73-.17,3-1.66C393.86,97.84,393.16,97,392.81,96.07Z"/><path d="M95.71,92.52c-0.8,5.08-1.94,9.81-8.56,10.19a26.17,26.17,0,0,0-4.6,1.12c-10.45,2.58-11.89,1.12-9.25-9.64,0.85-3.46,1.45-7,4.25-9.78,2.58-2.57,3.47-7.55,8.4-6.56,5.5,1.11,8,5.49,9.26,10.56A31.1,31.1,0,0,1,95.71,92.52Zm-4.51.82c-0.31-1.75-.58-3.07-0.78-4.4-0.42-2.88-1.81-5.53-4.49-6.27-3.15-.87-3.51,2.83-5,4.52-2.65,3-3.15,6.92-4.31,10.56-0.31,1-.89,2.1.63,2.83C80.7,102.22,91.19,96.51,91.21,93.34Z"/><path d="M495.17,87.77c0,7.8-5.48,16.94-9.13,16.85-3-.07-8.59-6.29-8.63-9.57,0-3.84,8.31-10,13.33-9.74C493.14,85.47,495.14,86.38,495.17,87.77Zm-4,2.67c-4.66.67-8.35,0.86-8.91,5.18-0.24,1.83,1.68,3.77,3.38,3.45C489.77,98.29,489.27,94.14,491.19,90.44Z"/><path d="M629.34,82.13c0.18,8-4.21,15.74-8.85,15.64-5.24-.11-7.49-4-8-8.49-0.62-5.25,5.72-13.35,9.92-12.72C625.58,77.06,630,77.35,629.34,82.13Zm-5.28,3.94c-0.23-1.76.44-4.53-1.85-4.47-3.35.1-3.58,3.71-4.31,6.12-0.49,1.65.47,4.19,2.52,4C623.55,91.5,623.15,88.17,624.06,86.07Z"/></svg>